<svg xmlns="http://www.w3.org/2000/svg" viewBox="0 0 64 64" width="64" height="64">
  <!-- 犬の顔のベース -->
  <circle cx="32" cy="34" r="24" fill="#D4A574" stroke="#B8956A" stroke-width="2"/>
  
  <!-- 耳 -->
  <ellipse cx="20" cy="18" rx="8" ry="14" fill="#C19660" stroke="#B8956A" stroke-width="1.5" transform="rotate(-25 20 18)"/>
  <ellipse cx="44" cy="18" rx="8" ry="14" fill="#C19660" stroke="#B8956A" stroke-width="1.5" transform="rotate(25 44 18)"/>
  
  <!-- 耳の内側 -->
  <ellipse cx="20" cy="20" rx="4" ry="8" fill="#E8C088" transform="rotate(-25 20 20)"/>
  <ellipse cx="44" cy="20" rx="4" ry="8" fill="#E8C088" transform="rotate(25 44 20)"/>
  
  <!-- 目 -->
  <circle cx="25" cy="28" r="3" fill="#2C2C2C"/>
  <circle cx="39" cy="28" r="3" fill="#2C2C2C"/>
  <circle cx="26" cy="27" r="1" fill="#FFFFFF"/>
  <circle cx="40" cy="27" r="1" fill="#FFFFFF"/>
  
  <!-- 鼻 -->
  <ellipse cx="32" cy="36" rx="3" ry="2" fill="#2C2C2C"/>
  
  <!-- 口 -->
  <path d="M 32 39 Q 28 42 24 40" stroke="#2C2C2C" stroke-width="2" fill="none" stroke-linecap="round"/>
  <path d="M 32 39 Q 36 42 40 40" stroke="#2C2C2C" stroke-width="2" fill="none" stroke-linecap="round"/>
  
  <!-- 舌 -->
  <ellipse cx="32" cy="44" rx="4" ry="2" fill="#FF6B8A"/>
</svg> 